# xmcd
#
# Track frame offsets: 
#        150
#        15567
#        33861
#        48695
#        68670
#        88374
#        105008
#        120534
#        142491
#        160707
#
# Disc length: 2419 seconds
#
# Revision: 0
# Processed by: cddbd v1.5.2PL0 Copyright (c) Steve Scherf et al.
# Submitted via: ExactAudioCopyFreeDBPlugin 1.0
#
DISCID=7f09710a
DTITLE=Travis Haddix - Ring On Her Finger, Rope Around My Neck
DYEAR=2013
DGENRE=Blues
TTITLE0=Jodie
TTITLE1=Doctor Doctor
TTITLE2=Ring On Her Finger, Rope Around My N
TTITLE3=Patience With A Purpose
TTITLE4=Old Fashioned Justice
TTITLE5=In Good Shape For The Shape I'm In
TTITLE6=Full, But Frustrated
TTITLE7=She's Good, She's Better, She's Best
TTITLE8=Two Jobs With A Paper Route
TTITLE9=Same Thing, Same Way
EXTD=
EXTT0=
EXTT1=
EXTT2=
EXTT3=
EXTT4=
EXTT5=
EXTT6=
EXTT7=
EXTT8=
EXTT9=
PLAYORDER=
